HIERARCHY
ROOT reference
{
  OFFSET 0 0 0
  CHANNELS 6 Xposition Yposition Zposition Zrotation Xrotation Yrotation
  JOINT Hips
  {
    OFFSET 6.63173 83.7844 116.916
    CHANNELS 6 Xposition Yposition Zposition Zrotation Xrotation Yrotation
    JOINT Spine
    {
      OFFSET 0 7.31558 0
      CHANNELS 6 Xposition Yposition Zposition Zrotation Xrotation Yrotation
      JOINT Spine1
      {
        OFFSET 0 21.7428 0
        CHANNELS 6 Xposition Yposition Zposition Zrotation Xrotation Yrotation
        JOINT Neck
        {
          OFFSET 0 21.6535 1.9685
          CHANNELS 6 Xposition Yposition Zposition Zrotation Xrotation Yrotation
          JOINT Head
          {
            OFFSET 0 12.49 -1.78429
            CHANNELS 6 Xposition Yposition Zposition Zrotation Xrotation Yrotation
            End Site
            {
              OFFSET 0 22.3036 0
            }
          }
        }
        JOINT LeftShoulder
        {
          OFFSET 3.56546 21.4407 -0.045508
          CHANNELS 6 Xposition Yposition Zposition Zrotation Xrotation Yrotation
          JOINT LeftArm
          {
            OFFSET 5.86532 0 0
            CHANNELS 6 Xposition Yposition Zposition Zrotation Xrotation Yrotation
            JOINT LeftForeArm
            {
              OFFSET 30.0831 0 0
              CHANNELS 6 Xposition Yposition Zposition Zrotation Xrotation Yrotation
              JOINT LeftHand
              {
                OFFSET 21.3133 0 0
                CHANNELS 6 Xposition Yposition Zposition Zrotation Xrotation Yrotation
                End Site
                {
                  OFFSET 13.3822 0 0
                }
              }
            }
          }
        }
        JOINT RightShoulder
        {
          OFFSET -3.55605 21.4407 -0.045508
          CHANNELS 6 Xposition Yposition Zposition Zrotation Xrotation Yrotation
          JOINT RightArm
          {
            OFFSET -5.86532 0 0
            CHANNELS 6 Xposition Yposition Zposition Zrotation Xrotation Yrotation
            JOINT RightForeArm
            {
              OFFSET -30.0831 0 0
              CHANNELS 6 Xposition Yposition Zposition Zrotation Xrotation Yrotation
              JOINT RightHand
              {
                OFFSET -21.3133 0 0
                CHANNELS 6 Xposition Yposition Zposition Zrotation Xrotation Yrotation
                End Site
                {
                  OFFSET -13.3822 0 0
                }
              }
            }
          }
        }
      }
    }
    JOINT LeftUpLeg
    {
      OFFSET 8.92144 0 0
      CHANNELS 6 Xposition Yposition Zposition Zrotation Xrotation Yrotation
      JOINT LeftLeg
      {
        OFFSET 0 -39.6329 0
        CHANNELS 6 Xposition Yposition Zposition Zrotation Xrotation Yrotation
        JOINT LeftFoot
        {
          OFFSET 0 -38.0584 0
          CHANNELS 6 Xposition Yposition Zposition Zrotation Xrotation Yrotation
          JOINT LeftToeBase
          {
            OFFSET 0 -5.79894 13.3822
            CHANNELS 6 Xposition Yposition Zposition Zrotation Xrotation Yrotation
            End Site
            {
              OFFSET 0 0 3.56858
            }
          }
        }
      }
    }
    JOINT RightUpLeg
    {
      OFFSET -8.92144 0 0
      CHANNELS 6 Xposition Yposition Zposition Zrotation Xrotation Yrotation
      JOINT RightLeg
      {
        OFFSET 0 -39.6329 0
        CHANNELS 6 Xposition Yposition Zposition Zrotation Xrotation Yrotation
        JOINT RightFoot
        {
          OFFSET 0 -38.0584 0
          CHANNELS 6 Xposition Yposition Zposition Zrotation Xrotation Yrotation
          JOINT RightToeBase
          {
            OFFSET 0 -5.79894 13.3822
            CHANNELS 6 Xposition Yposition Zposition Zrotation Xrotation Yrotation
            End Site
            {
              OFFSET 0 0 3.56858
            }
          }
        }
      }
    }
  }
}
MOTION
Frames:	10
Frame Time:	0.004
0 0 0 0 0 -0 -14.3598 76.5084 -203.346 -1.25031 0.265078 5.71647 -1.77636e-015 7.31558 0 2.48036 -4.35203 1.43671 1.77636e-015 21.7428 0 0.254624 -2.56956 1.34833 0 21.6535 1.9685 -4.4178 12.0645 1.32958 0 12.49 -1.78429 -1.24755 -0.564256 1.37329 3.56546 21.4407 -0.045508 11.2792 0.033552 -6.96141 5.86532 0 0 -18.604 7.19035 1.0211 30.0831 0 0 -3.213 -1.17179 5.48256 21.3133 0 0 -0.672174 -1.00474 -2.26551 -3.55605 21.4407 -0.045508 -11.9007 1.72742 -1.98479 -5.86532 0 0 15.0853 1.96967 1.81121 -30.0831 0 2.84217e-014 -1.11078 -0.99869 -1.66475 -21.3133 -2.84217e-014 2.84217e-014 0.894445 -0.977907 4.73495 8.92144 0 0 -0.617829 -4.59207 0.845374 -1.77636e-015 -39.6329 0 2.20526 28.4737 -3.3219 2.66454e-015 -38.0584 2.84217e-014 -5.95734 -23.7187 5.26863 0 -5.79894 13.3822 1.9265e-015 -4.87644e-016 1.59028e-015 -8.92144 1.42109e-014 0 -0.220893 7.01619 6.59474 7.10543e-015 -39.6329 0 4.69359 1.12793 -1.45651 0 -38.0584 -2.84217e-014 -1.06079 -17.3324 -15.4848 7.10543e-015 -5.79894 13.3822 -1.98785e-016 -1.59028e-015 7.95139e-016 
0 0 0 0 0 -0 -14.328 76.495 -203.272 -1.2879 0.291217 5.5714 3.55271e-015 7.31558 0 2.57963 -4.37813 1.47825 1.77636e-015 21.7428 2.84217e-014 0.045575 -2.52494 1.38075 -3.55271e-015 21.6535 1.9685 -3.94109 12.0772 1.38022 -3.55271e-015 12.49 -1.78429 -1.5912 -0.657163 1.35471 3.56546 21.4407 -0.045508 11.1485 0.392343 -6.84926 5.86532 0 0 -18.3119 6.86483 0.907273 30.0831 0 0 -3.23851 -1.11411 5.43012 21.3133 2.84217e-014 -2.84217e-014 0.554565 -0.968757 -1.67183 -3.55605 21.4407 -0.045508 -11.2566 1.32772 -1.85898 -5.86532 0 2.84217e-014 14.724 2.23625 1.59517 -30.0831 0 -2.84217e-014 -1.24358 -1.02218 -1.52268 -21.3133 -2.84217e-014 0 0.966012 -0.998574 4.76559 8.92144 0 0 -0.602747 -4.84841 0.827788 3.55271e-015 -39.6329 0 2.23208 29.5477 -3.28887 -1.77636e-015 -38.0584 -2.84217e-014 -5.79327 -23.9633 5.42925 -7.10543e-015 -5.79894 13.3822 1.56543e-015 0 -0 -8.92144 1.42109e-014 0 -0.183857 7.0395 6.59022 7.10543e-015 -39.6329 0 4.61507 1.11284 -1.48816 7.10543e-015 -38.0584 0 -0.987064 -17.4106 -15.2937 0 -5.79894 13.3822 9.93923e-016 -1.59028e-015 -7.95139e-016 
0 0 0 0 0 -0 -14.294 76.4852 -203.193 -1.32415 0.305301 5.4069 -1.77636e-015 7.31558 -2.84217e-014 2.62341 -4.30415 1.55783 0 21.7428 0 0.243987 -2.60898 1.46495 0 21.6535 1.9685 -4.33843 12.0262 1.37274 0 12.49 -1.78429 -1.3763 -0.63168 1.39675 3.56546 21.4407 -0.045508 11.0481 0.357481 -6.73983 5.86532 0 0 -18.3568 7.00688 0.884078 30.0831 -1.42109e-014 0 -3.25209 -1.16796 5.35637 21.3133 0 0 0.549723 -1.02394 -1.66682 -3.55605 21.4407 -0.045508 -11.8808 1.80058 -2.03797 -5.86532 0 0 15.2245 2.01662 1.85328 -30.0831 0 0 -1.3941 -1.19206 -1.39982 -21.3133 0 0 1.02213 -1.16717 4.7122 8.92144 0 0 -0.575324 -5.07983 0.834378 1.77636e-015 -39.6329 -2.84217e-014 2.32616 30.7433 -3.37248 1.77636e-015 -38.0584 2.84217e-014 -5.42429 -24.0369 5.60849 7.10543e-015 -5.79894 13.3822 -2.20695e-032 3.97569e-016 3.18055e-015 -8.92144 0 0 -0.178568 7.08299 6.71805 -3.55271e-015 -39.6329 2.84217e-014 4.5897 1.0756 -1.48633 -3.55271e-015 -38.0584 0 -0.901236 -17.4839 -15.2306 7.10543e-015 -5.79894 13.3822 2.98177e-016 1.59028e-015 -7.95139e-016 
0 0 0 0 0 -0 -14.2576 76.4774 -203.114 -1.351 0.32503 5.24279 0 7.31558 0 2.70362 -4.27453 1.61585 0 21.7428 2.84217e-014 0.203165 -2.6349 1.51973 -3.55271e-015 21.6535 1.9685 -4.35168 11.9736 1.38039 0 12.49 -1.78429 -1.3216 -0.602939 1.41579 3.56546 21.4407 -0.045508 11.0007 0.024842 -6.72501 5.86532 2.84217e-014 0 -18.3944 7.31321 1.09946 30.0831 -1.42109e-014 0 -3.21025 -1.19243 5.30315 21.3133 -1.42109e-014 -2.84217e-014 0.577914 -1.05223 -1.65633 -3.55605 21.4407 -0.045508 -11.8105 1.7765 -2.00677 -5.86532 0 -2.84217e-014 15.2366 2.04729 1.79045 -30.0831 0 0 -1.37845 -1.06893 -1.18609 -21.3133 0 0 0.822034 -1.04971 4.68179 8.92144 2.84217e-014 0 -0.573815 -5.29986 0.828123 1.77636e-015 -39.6329 -2.84217e-014 2.37962 31.7616 -3.35928 -8.88178e-016 -38.0584 2.84217e-014 -5.46215 -24.2087 5.58029 0 -5.79894 13.3822 9.44227e-016 -3.97569e-016 -1.59028e-015 -8.92144 0 0 -0.18717 7.12016 6.80618 -3.55271e-015 -39.6329 0 4.56639 1.0468 -1.42419 7.10543e-015 -38.0584 0 -0.832349 -17.5352 -15.1961 0 -5.79894 13.3822 -6.95746e-016 0 1.59028e-015 
0 0 0 0 0 -0 -14.2192 76.4704 -203.025 -1.37668 0.336426 5.04847 -1.77636e-015 7.31558 0 2.76578 -4.19505 1.67101 0 21.7428 0 0.208765 -2.77441 1.57491 -3.55271e-015 21.6535 1.9685 -4.39378 12.0333 1.40058 0 12.49 -1.78429 -1.28081 -0.605877 1.44202 3.56546 21.4407 -0.045508 10.9394 0.445605 -6.59758 5.86532 0 -2.84217e-014 -18.3396 7.05671 0.961015 30.0831 0 0 -3.27889 -1.0552 5.248 21.3133 0 2.84217e-014 1.34109 -0.918295 -1.12823 -3.55605 21.4407 -0.045508 -11.7338 1.69827 -1.88115 -5.86532 0 2.84217e-014 15.2455 2.12724 1.64506 -30.0831 0 -2.84217e-014 -1.51592 -1.09477 -0.975492 -21.3133 0 0 1.01127 -1.06597 4.73399 8.92144 0 -2.84217e-014 -0.562719 -5.44664 0.567958 0 -39.6329 0 2.21242 32.7394 -2.80841 8.88178e-016 -38.0584 -2.84217e-014 -5.50344 -24.3685 5.63094 -7.10543e-015 -5.79894 13.3822 1.98785e-016 7.95139e-016 -0 -8.92144 -1.42109e-014 0 -0.20601 7.17741 6.96345 0 -39.6329 0 4.55229 1.033 -1.09051 0 -38.0584 -2.84217e-014 -0.873772 -17.6091 -15.4817 7.10543e-015 -5.79894 13.3822 9.93923e-017 3.18055e-015 -0 
0 0 0 0 0 -0 -14.1803 76.4658 -202.934 -1.40595 0.350011 4.84425 -1.77636e-015 7.31558 2.84217e-014 2.91869 -4.15635 1.76454 0 21.7428 0 -0.146789 -2.8623 1.6551 0 21.6535 1.9685 -3.85153 12.1181 1.38274 0 12.49 -1.78429 -1.52562 -0.64245 1.3623 3.56546 21.4407 -0.045508 11.1327 0.38943 -6.6525 5.86532 0 0 -18.399 7.05339 1.09366 30.0831 2.84217e-014 0 -3.07707 -1.2602 5.28906 21.3133 1.42109e-014 -2.84217e-014 1.30822 -1.13287 -1.29057 -3.55605 21.4407 -0.045508 -10.9227 1.45121 -1.80814 -5.86532 0 2.84217e-014 14.8209 2.30121 1.4397 -30.0831 0 -2.84217e-014 -1.76885 -1.26064 -0.817746 -21.3133 -2.84217e-014 0 1.21391 -1.22334 4.71911 8.92144 0 2.84217e-014 -0.539901 -5.64195 0.729333 3.55271e-015 -39.6329 0 2.25068 33.8344 -2.80064 -8.88178e-016 -38.0584 2.84217e-014 -5.20675 -24.4443 5.66904 0 -5.79894 13.3822 1.98785e-016 0 3.18055e-015 -8.92144 1.42109e-014 2.84217e-014 -0.21197 7.23446 7.06528 3.55271e-015 -39.6329 2.84217e-014 4.51454 0.98057 -1.13466 0 -38.0584 -2.84217e-014 -0.695061 -17.6904 -15.3157 -7.10543e-015 -5.79894 13.3822 -9.93923e-017 -3.18055e-015 -0 
0 0 0 0 0 -0 -14.1422 76.4597 -202.848 -1.43747 0.398124 4.65028 0 7.31558 0 2.98797 -4.15172 1.83778 -1.77636e-015 21.7428 0 -0.173804 -2.92613 1.72519 -3.55271e-015 21.6535 1.9685 -3.80017 12.1736 1.38527 3.55271e-015 12.49 -1.78429 -1.56421 -0.691594 1.35455 3.56546 21.4407 -0.045508 11.1633 0.422167 -6.63954 5.86532 0 0 -18.4665 7.00158 1.19862 30.0831 0 0 -3.01786 -1.33087 5.16707 21.3133 1.42109e-014 0 1.32281 -1.20793 -1.13648 -3.55605 21.4407 -0.045508 -10.8539 1.51264 -1.77048 -5.86532 0 0 14.8669 2.19711 1.38263 -30.0831 -2.84217e-014 -2.84217e-014 -1.90789 -1.35981 -0.562985 -21.3133 0 2.84217e-014 1.1065 -1.32531 4.54886 8.92144 0 0 -0.52148 -5.85148 0.775647 -1.77636e-015 -39.6329 0 2.26741 34.8936 -2.6769 8.88178e-016 -38.0584 0 -5.13277 -24.4417 5.62381 0 -5.79894 13.3822 -4.41391e-032 7.95139e-016 3.18055e-015 -8.92144 0 0 -0.225442 7.25268 7.17468 -3.55271e-015 -39.6329 2.84217e-014 4.49562 0.929498 -1.12342 -3.55271e-015 -38.0584 0 -0.564208 -17.7723 -15.2216 0 -5.79894 13.3822 -2.18663e-015 0 1.59028e-015 
0 0 0 0 0 -0 -14.1029 76.4556 -202.762 -1.46928 0.44861 4.44596 -3.55271e-015 7.31558 2.84217e-014 3.0203 -4.10029 1.92083 0 21.7428 -2.84217e-014 0.060659 -3.01781 1.81444 0 21.6535 1.9685 -4.28518 12.0811 1.37329 0 12.49 -1.78429 -1.27596 -0.588348 1.40834 3.56546 21.4407 -0.045508 11.0123 0.382025 -6.47814 5.86532 0 0 -18.5021 7.19968 1.17628 30.0831 0 0 -2.91963 -1.58528 5.10867 21.3133 -2.84217e-014 0 0.171757 -1.45773 -1.71752 -3.55605 21.4407 -0.045508 -11.4888 1.88576 -1.9434 -5.86532 0 -2.84217e-014 15.3569 1.89011 1.59768 -30.0831 0 2.84217e-014 -1.96837 -1.42349 -0.256781 -21.3133 2.84217e-014 0 1.12468 -1.38329 4.55644 8.92144 0 0 -0.497844 -6.04707 0.907672 1.77636e-015 -39.6329 2.84217e-014 2.29384 35.9028 -2.63178 0 -38.0584 0 -5.20325 -24.4724 5.55453 0 -5.79894 13.3822 7.95139e-016 0 -0 -8.92144 0 0 -0.241187 7.26403 7.28977 3.55271e-015 -39.6329 0 4.46709 0.893923 -1.09558 -3.55271e-015 -38.0584 2.84217e-014 -0.39657 -17.8686 -15.136 0 -5.79894 13.3822 2.98177e-016 1.59028e-015 -0 
0 0 0 0 0 -0 -14.0629 76.4547 -202.675 -1.50359 0.526957 4.22734 1.77636e-015 7.31558 0 3.1025 -4.12088 1.98002 0 21.7428 -2.84217e-014 -0.121986 -3.08922 1.86525 3.55271e-015 21.6535 1.9685 -3.8692 12.093 1.41199 0 12.49 -1.78429 -1.52196 -0.563036 1.39588 3.56546 21.4407 -0.045508 11.1194 0.280304 -6.39445 5.86532 -2.84217e-014 0 -18.5932 7.25338 1.3042 30.0831 1.42109e-014 -2.84217e-014 -2.75669 -1.6827 5.05541 21.3133 0 2.84217e-014 0.230297 -1.56455 -1.70318 -3.55605 21.4407 -0.045508 -10.8947 1.59143 -1.81667 -5.86532 0 2.84217e-014 14.9931 2.13069 1.41567 -30.0831 0 0 -2.04573 -1.46974 -0.063567 -21.3133 0 0 1.23784 -1.42065 4.65854 8.92144 0 0 -0.481138 -6.26532 1.01316 -3.55271e-015 -39.6329 0 2.30785 36.991 -2.52932 -8.88178e-016 -38.0584 0 -4.9673 -24.4785 5.51829 0 -5.79894 13.3822 1.98785e-016 0 -1.59028e-015 -8.92144 2.84217e-014 0 -0.248816 7.24115 7.37093 3.55271e-015 -39.6329 -2.84217e-014 4.43045 0.843422 -1.3332 3.55271e-015 -38.0584 2.84217e-014 -0.0835807 -17.943 -14.7009 0 -5.79894 13.3822 9.93923e-016 0 7.95139e-016 
0 0 0 0 0 -0 -14.0211 76.4539 -202.583 -1.545 0.593998 3.99843 -1.77636e-015 7.31558 0 3.15636 -4.11271 2.03871 -1.77636e-015 21.7428 -2.84217e-014 -0.072641 -3.20044 1.92349 -1.77636e-015 21.6535 1.9685 -3.92386 12.1712 1.4391 0 12.49 -1.78429 -1.49075 -0.593453 1.42758 3.56546 21.4407 -0.045508 11.0739 0.407031 -6.28675 5.86532 2.84217e-014 0 -18.6405 7.24794 1.34149 30.0831 -1.42109e-014 0 -2.63743 -1.879 4.9861 21.3133 0 0 0.264508 -1.76818 -1.66793 -3.55605 21.4407 -0.045508 -10.8545 1.61517 -1.72046 -5.86532 0 0 15.0266 2.038 1.33308 -30.0831 0 0 -2.19433 -1.58778 0.288708 -21.3133 0 0 1.32014 -1.52909 4.61855 8.92144 0 -2.84217e-014 -0.452799 -6.4395 1.10272 0 -39.6329 -2.84217e-014 2.31921 37.9656 -2.50629 8.88178e-016 -38.0584 0 -5.25518 -24.551 5.36878 0 -5.79894 13.3822 5.96354e-016 1.59028e-015 3.18055e-015 -8.92144 1.42109e-014 0 -0.263962 7.23951 7.48501 0 -39.6329 -2.84217e-014 4.41427 0.795735 -1.33096 0 -38.0584 0 0.33715 -18.0038 -14.5091 0 -5.79894 13.3822 2.98177e-016 0 7.95139e-016 
